<?xml version="1.0" encoding="utf-8"?>
<!-- Generator: Adobe Illustrator 23.0.1, SVG Export Plug-In . SVG Version: 6.00 Build 0)  -->
<svg version="1.1" id="Capa_1" xmlns="http://www.w3.org/2000/svg" xmlns:xlink="http://www.w3.org/1999/xlink" x="0px" y="0px"
	 viewBox="0 0 194.12 194.12" style="enable-background:new 0 0 194.12 194.12;" xml:space="preserve">
<style type="text/css">
	.st0{opacity:0.9;fill:#E1DDC5;stroke:#E1DDC5;stroke-width:4.3532;stroke-miterlimit:10;}
</style>
<g>
	<circle class="st0" cx="96.99" cy="98" r="94.01"/>
	<g>
		<g>
			<g>
				<path d="M131.33,19.76c-12.49,25.08-22.19,51.98-31.59,78.34c-9.22,25.85-17.23,51.94-24.04,78.52
					c-0.24,0.92,2.86,1.18,3.16,0.04c6.95-27.1,15.17-53.7,24.62-80.04c9.22-25.71,18.71-51.93,30.9-76.4
					C134.9,19.16,131.81,18.81,131.33,19.76L131.33,19.76z"/>
			</g>
		</g>
		<g>
			<g>
				<path d="M124.2,39.13c-1.4-1.8-1.25-5.85-1.18-7.99c0.08-2.63,0.42-5.45,0.9-8.04c-0.67,0.25-1.34,0.49-2.01,0.74
					c0.1,0.01,0.2,0.02,0.3,0.03c1.46,0.15,2.98-1.3,0.86-1.51c-0.1-0.01-0.2-0.02-0.3-0.03c-0.59-0.06-1.86-0.07-2.01,0.74
					c-0.54,2.9-0.96,6.13-0.91,9.08c0.04,2.11-0.06,5.63,1.29,7.37C121.81,40.36,124.83,39.95,124.2,39.13L124.2,39.13z"/>
			</g>
		</g>
		<g>
			<g>
				<path d="M125.53,41.92c3.19-2.17,6.26-4.48,9.23-6.93c2.22-1.83,4.98-3.66,6.52-6.14c0.59-0.95-2.47-1.37-3.04-0.46
					c-1.61,2.6-4.75,4.6-7.09,6.5c-2.69,2.18-5.47,4.25-8.34,6.2C121.72,41.84,124.71,42.48,125.53,41.92L125.53,41.92z"/>
			</g>
		</g>
		<g>
			<g>
				<path d="M120.17,47.94c-6.21-2.07-5.99-11.39-7.51-16.62c-0.28-0.96-3.4-0.82-3.05,0.38c1.83,6.27,1.54,15.11,8.95,17.58
					C119.66,49.65,122.12,48.59,120.17,47.94L120.17,47.94z"/>
			</g>
		</g>
		<g>
			<g>
				<path d="M120.8,50.51c4.16-0.19,7.92-1.45,11.61-3.37c1.86-0.96,3.71-2,5.48-3.1c1.83-1.14,2.99-2.82,4.73-4.02
					c1.09-0.76-1.9-1.4-2.72-0.83c-1.25,0.87-2.06,2.13-3.26,3.06c-1.36,1.05-3,1.86-4.5,2.7c-3.52,1.97-7.22,3.8-11.32,3.99
					C118.96,49.02,118.88,50.6,120.8,50.51L120.8,50.51z"/>
			</g>
		</g>
		<g>
			<g>
				<path d="M117.13,56.25c-3.54-1.21-5.95-6.36-7.7-9.42c-0.89-1.56-1.67-3.19-2.45-4.81c-0.61-1.27-1.88-3.1-1.93-4.54
					c-0.04-1.11-3.19-1.12-3.16-0.04c0.05,1.55,1.11,3.05,1.78,4.42c1.14,2.34,2.28,4.65,3.63,6.87c2.01,3.32,4.34,7.53,8.23,8.86
					C116.63,57.97,119.08,56.91,117.13,56.25L117.13,56.25z"/>
			</g>
		</g>
		<g>
			<g>
				<path d="M118.19,57.56c7.72-2.24,15-4.66,22.27-8.05c1.58-0.74-1.32-1.56-2.22-1.14c-7.03,3.28-14.17,5.65-21.63,7.81
					C114.64,56.75,117.07,57.88,118.19,57.56L118.19,57.56z"/>
			</g>
		</g>
		<g>
			<g>
				<path d="M111.77,65c-1.82,2.19-5.91-2.61-6.84-3.88c-0.93-1.26-1.69-2.62-2.35-4.04c-1.43-3.09-3.23-7.23-3.53-10.64
					c-0.53,0.26-1.06,0.51-1.59,0.77c0.1,0,0.21,0,0.31,0.01c1.89,0.04,1.92-1.53,0.02-1.58c-0.1,0-0.21,0-0.31-0.01
					c-0.4-0.01-1.64,0.13-1.59,0.77c0.28,3.19,1.87,6.82,3.09,9.79c1.32,3.21,3.26,6.58,6.09,8.71c2.48,1.86,7.41,3.35,9.74,0.55
					C115.46,64.67,112.47,64.16,111.77,65L111.77,65z"/>
			</g>
		</g>
		<g>
			<g>
				<path d="M115.13,65.9c-0.07-0.02-0.14-0.04-0.21-0.06c-0.41,0.48-0.82,0.95-1.23,1.43c4.38,0.49,9.47-2.07,13.46-3.76
					c5.39-2.28,12.09-4.64,16.29-8.82c1.01-1.01-2-1.54-2.72-0.83c-3.36,3.33-8.68,5.37-12.95,7.27c-2.3,1.02-4.63,2.09-7.04,2.84
					c-1.53,0.48-4.64,1.95-6.19,1.78c-0.95-0.11-3.15,0.88-1.23,1.43c0.07,0.02,0.14,0.04,0.21,0.06
					C114.62,67.56,117.1,66.46,115.13,65.9L115.13,65.9z"/>
			</g>
		</g>
		<g>
			<g>
				<path d="M109.59,75.61c-5.26-1.63-9.07-7.57-11.75-12c-1.76-2.91-5.32-8.07-4.97-11.59c0.1-1.05-3.04-1.17-3.16-0.04
					c-0.22,2.2,1.08,4.07,2.01,5.99c1.46,3.03,2.9,5.91,4.8,8.7c2.88,4.24,6.4,8.71,11.46,10.28
					C109.08,77.3,111.55,76.22,109.59,75.61L109.59,75.61z"/>
			</g>
		</g>
		<g>
			<g>
				<path d="M110.51,75.63c-0.08,0-0.17,0.01-0.25,0.01c-0.47,0.01-2.23,0.38-1.38,1.17c3.9,3.6,9.88,1.03,14.19-0.39
					c7.1-2.34,12.96-5.67,19.11-9.75c1.1-0.73-1.89-1.37-2.72-0.83c-3.76,2.49-7.23,4.76-11.39,6.59
					c-3.22,1.42-13.16,6.66-16.46,3.61c-0.46,0.39-0.92,0.78-1.38,1.17c0.08,0,0.17-0.01,0.25-0.01
					C112.37,77.15,112.43,75.57,110.51,75.63L110.51,75.63z"/>
			</g>
		</g>
		<g>
			<g>
				<path d="M104.5,87.56c-0.08,0.07-0.16,0.14-0.24,0.22c-0.38,0.35-0.17,0.76,0.24,0.96c4.94,2.47,12.42,0.22,17.39-1.34
					c6.75-2.13,14.69-5,20.16-9.54c0.88-0.73-0.87-1.22-1.35-1.2c-0.24,0.01-0.47,0.02-0.71,0.03c-1.86,0.08-1.94,1.66-0.02,1.58
					c0.24-0.01,0.47-0.02,0.71-0.03c-0.45-0.4-0.9-0.8-1.35-1.2c-3.92,3.26-9.35,5.32-14.06,7.15c-2.41,0.94-4.83,1.89-7.35,2.5
					c-1.7,0.41-9.62,0.72-10.71,1.71C108.26,87.44,105.24,86.88,104.5,87.56L104.5,87.56z"/>
			</g>
		</g>
		<g>
			<g>
				<path d="M99.76,100.59c5.35,3.46,13.26,0.08,18.63-1.75c3.83-1.3,7.46-2.96,11-4.91c2.9-1.6,6.29-3,8.35-5.67
					c0.64-0.83-2.38-1.32-3.04-0.46c-2.78,3.61-9.59,6.3-13.71,8.07c-4.11,1.76-14.64,6.44-18.99,3.63
					C101.15,98.95,98.26,99.63,99.76,100.59L99.76,100.59z"/>
			</g>
		</g>
		<g>
			<g>
				<path d="M95.1,112.4c5.1,3.47,12.51,1.2,18-0.11c9.04-2.16,18-6.69,26.21-10.97c1.56-0.82-1.33-1.61-2.22-1.14
					c-5.2,2.71-10.69,5.25-16.11,7.5c-3.08,1.28-6.21,2.46-9.46,3.24c-3.49,0.84-10.45,2.93-13.69,0.73
					C97.03,111.09,94.01,111.66,95.1,112.4L95.1,112.4z"/>
			</g>
		</g>
		<g>
			<g>
				<path d="M94.82,123.87c-0.06-0.02-0.11-0.03-0.17-0.05c-1.09-0.3-3.59,0.74-1.61,1.34c6.37,1.96,14.42-1.72,20.38-3.81
					c8.33-2.93,17.35-6.39,24.86-11.03c0.54-0.33,0.61-0.77,0.01-1.12c-0.05-0.03-0.1-0.06-0.15-0.09c-0.87-0.51-3.77,0.2-2.24,1.09
					c-2.01-1.18-5.75,1.9-7.63,2.82c-3.54,1.73-7.15,3.31-10.8,4.79c-3.63,1.47-7.28,2.73-11.02,3.87
					c-3.51,1.07-8.14,3.25-11.78,2.13c-0.54,0.45-1.07,0.9-1.61,1.34c0.06,0.02,0.11,0.03,0.17,0.05
					C94.31,125.52,96.79,124.42,94.82,123.87L94.82,123.87z"/>
			</g>
		</g>
		<g>
			<g>
				<path d="M88.7,136.35c1.34,3.74,13.43-0.87,15.47-1.6c12.25-4.41,22.78-11.7,33.93-18.14c0.54-0.31,0.61-0.79,0.01-1.12
					c-0.05-0.03-0.1-0.06-0.15-0.08c-0.88-0.48-3.79,0.25-2.24,1.09c-1.36-0.74-2.1,0.37-3.22,1.13c-2.54,1.7-5.11,3.39-7.74,4.95
					c-3.72,2.2-7.63,4.04-11.5,5.95c-1.86,0.92-20.7,9.71-21.51,7.45C91.4,135,88.28,135.19,88.7,136.35L88.7,136.35z"/>
			</g>
		</g>
		<g>
			<g>
				<path d="M85.16,148.04c2.92,5.5,18.9-2.76,22.65-4.27c5.57-2.25,11.43-4.8,16.5-8.02c3.69-2.34,9.21-5.19,11.39-9.14
					c-1.01-0.15-2.03-0.3-3.04-0.46c-0.04,0.14-0.08,0.28-0.12,0.41c-0.36,1.21,2.75,1.42,3.04,0.46c0.04-0.14,0.08-0.28,0.12-0.41
					c0.36-1.23-2.56-1.33-3.04-0.46c-1.54,2.78-5.03,4.57-7.58,6.38c-3.87,2.74-7.86,4.73-12.13,6.74
					c-2.58,1.22-23.28,11.16-24.75,8.38C87.71,146.72,84.61,147.01,85.16,148.04L85.16,148.04z"/>
			</g>
		</g>
		<g>
			<g>
				<path d="M105.19,86.89c-5.76-1.6-8.78-7.81-11.21-12.77c-1.03-2.11-1.98-4.24-2.91-6.39c-0.81-1.87-2.61-4.57-2.49-6.68
					c0.06-1.07-3.09-1.16-3.16-0.04c-0.13,2.17,1.4,4.32,2.24,6.26c1.49,3.45,3,6.9,4.79,10.2c2.6,4.77,5.7,9.26,11.13,10.77
					C104.69,88.54,107.17,87.43,105.19,86.89L105.19,86.89z"/>
			</g>
		</g>
		<g>
			<g>
				<path d="M100.93,99.71c-2.87-0.31-6.17-6.36-7.84-8.53c-2.16-2.8-4.06-5.8-5.63-8.98c-3.02-6.11-4.56-12.71-5.72-19.39
					c-0.2-1.14-3.33-1.02-3.16-0.04c1.46,8.33,3.55,16.38,7.96,23.69c2.27,3.77,5.1,7.2,7.87,10.61c1.6,1.98,3.03,3.85,5.66,4.14
					C101.53,101.39,103.05,99.95,100.93,99.71L100.93,99.71z"/>
			</g>
		</g>
		<g>
			<g>
				<path d="M98.14,111.06c-6.95-2.67-11.83-10.06-15.37-16.31c-3.51-6.19-6.23-13.14-7.23-20.2c-0.16-1.14-3.3-1.05-3.16-0.04
					c1.18,8.34,4.58,16.68,9.21,23.69c3.88,5.88,8.17,11.6,14.94,14.21C97.63,112.83,100.06,111.8,98.14,111.06L98.14,111.06z"/>
			</g>
		</g>
		<g>
			<g>
				<path d="M92.24,122.39c-0.13,0.16-0.26,0.32-0.39,0.47c0.51-0.19,1.02-0.37,1.53-0.56c-2.9-0.11-7.23-6.14-9.21-8.21
					c-2.87-2.99-5.62-6.12-8.03-9.49c-4.58-6.42-7.68-13.5-7.75-21.5c-0.01-1.1-3.17-1.13-3.16-0.04
					c0.11,11.25,6.17,20.67,13.45,28.82c2.21,2.48,12.34,16.13,16.6,10.96C95.93,122.06,92.93,121.55,92.24,122.39L92.24,122.39z"/>
			</g>
		</g>
		<g>
			<g>
				<path d="M91.77,135.99c-8.38-4.33-15.34-12.65-20.91-20.09c-5.47-7.3-8.33-13.98-10.29-22.84c-0.25-1.14-3.37-0.98-3.16-0.04
					c2.09,9.47,5.41,16.9,11.46,24.64c5.7,7.31,12.3,15.1,20.65,19.41C90.41,137.54,93.33,136.8,91.77,135.99L91.77,135.99z"/>
			</g>
		</g>
		<g>
			<g>
				<path d="M84.55,146.35c-4.46-1.43-8.64-7.67-11.34-11.14c-2.43-3.12-4.74-6.32-6.87-9.64c-4.86-7.59-8.13-15.11-10.03-23.91
					c-0.25-1.14-3.36-0.99-3.16-0.04c2.17,10.1,6.26,18.79,12.12,27.33c4.19,6.11,10.22,16.36,17.66,18.75
					C84.04,148.05,86.5,146.97,84.55,146.35L84.55,146.35z"/>
			</g>
		</g>
		<g>
			<g>
				<path d="M83.01,159.69c-7.96-3.33-13.44-12.34-18.33-18.97c-5.11-6.93-10.93-15.38-12.31-24.06c-0.18-1.14-3.31-1.03-3.16-0.04
					c1.52,9.56,7.87,18.39,13.53,25.98c4.86,6.51,10.22,14.91,18.02,18.18C81.66,161.15,84.59,160.35,83.01,159.69L83.01,159.69z"/>
			</g>
		</g>
		<g>
			<g>
				<path d="M83.11,163.22c8.76-4.46,18.69-6.23,27.46-10.79c7.01-3.64,14.47-8.8,18.81-15.52c0.6-0.93-2.45-1.36-3.04-0.46
					c-10.28,15.94-29.98,17.74-45.45,25.63C79.32,162.87,82.21,163.67,83.11,163.22L83.11,163.22z"/>
			</g>
		</g>
	</g>
</g>
</svg>
